<?xml version="1.0" encoding="utf-8"?>
<!-- Generator: Adobe Illustrator 22.0.1, SVG Export Plug-In . SVG Version: 6.00 Build 0)  -->
<svg version="1.1" xmlns="http://www.w3.org/2000/svg" xmlns:xlink="http://www.w3.org/1999/xlink" x="0px" y="0px"
	 viewBox="0 0 1920 6262.9" style="enable-background:new 0 0 1920 6262.9;" xml:space="preserve">
<style type="text/css">
	.st0{fill:url(#SVGID_1_);}
	.st1{fill:url(#SVGID_2_);}
	.st2{fill:url(#SVGID_3_);}
	.st3{fill:url(#SVGID_4_);}
	.st4{fill:url(#SVGID_5_);}
	.st5{fill:url(#SVGID_6_);}
	.st6{fill:url(#SVGID_7_);}
	.st7{fill:url(#SVGID_8_);}
	.st8{fill:url(#SVGID_9_);}
	.st9{fill:url(#SVGID_10_);}
	.st10{fill:url(#SVGID_11_);}
	.st11{fill:url(#SVGID_12_);}
	.st12{fill:url(#SVGID_13_);}
	.st13{fill:url(#SVGID_14_);}
	.st14{fill:#FFFFFF;}
	.st15{fill:none;stroke:#FFFFFF;stroke-miterlimit:10;}
	.st16{fill:none;stroke:#FFFFFF;stroke-width:0.9506;stroke-miterlimit:10;}
	.st17{fill:none;stroke:#FFFFFF;stroke-width:0.8946;stroke-miterlimit:10;}
	.st18{fill:none;stroke:#FFFFFF;stroke-width:0.8232;stroke-miterlimit:10;}
	.st19{fill:none;stroke:#FFFFFF;stroke-width:0.7679;stroke-miterlimit:10;}
	.st20{fill:none;stroke:#FFFFFF;stroke-width:0.705;stroke-miterlimit:10;}
	.st21{fill:none;stroke:#FFFFFF;stroke-width:0.6574;stroke-miterlimit:10;}
	.st22{fill:none;stroke:#FFFFFF;stroke-width:0.594;stroke-miterlimit:10;}
	.st23{fill:none;stroke:#FFFFFF;stroke-width:0.5318;stroke-miterlimit:10;}
	.st24{fill:none;stroke:#FFFFFF;stroke-width:0.4764;stroke-miterlimit:10;}
	.st25{fill:none;stroke:#FFFFFF;stroke-width:0.4286;stroke-miterlimit:10;}
	.st26{fill:none;stroke:#FFFFFF;stroke-width:0.3802;stroke-miterlimit:10;}
	.st27{fill:none;stroke:#FFFFFF;stroke-width:0.3361;stroke-miterlimit:10;}
	.st28{fill:none;stroke:#FFFFFF;stroke-width:0.2932;stroke-miterlimit:10;}
	.st29{fill:none;stroke:#FFFFFF;stroke-width:0.2495;stroke-miterlimit:10;}
	.st30{fill:none;stroke:#FFFFFF;stroke-width:0.212;stroke-miterlimit:10;}
	.st31{fill:none;stroke:#FFFFFF;stroke-width:0.17;stroke-miterlimit:10;}
	.st32{fill:none;stroke:#FFFFFF;stroke-width:0.1371;stroke-miterlimit:10;}
	.st33{fill:none;stroke:#FFFFFF;stroke-width:9.934658e-02;stroke-miterlimit:10;}
	.st34{fill:none;stroke:#FFFFFF;stroke-width:6.655461e-02;stroke-miterlimit:10;}
	.st35{fill:none;stroke:#FFFFFF;stroke-width:2.1433;stroke-miterlimit:10;}
	.st36{fill:none;stroke:#FFFFFF;stroke-width:2.0374;stroke-miterlimit:10;}
	.st37{fill:none;stroke:#FFFFFF;stroke-width:1.9175;stroke-miterlimit:10;}
	.st38{fill:none;stroke:#FFFFFF;stroke-width:1.7644;stroke-miterlimit:10;}
	.st39{fill:none;stroke:#FFFFFF;stroke-width:1.6458;stroke-miterlimit:10;}
	.st40{fill:none;stroke:#FFFFFF;stroke-width:1.511;stroke-miterlimit:10;}
	.st41{fill:none;stroke:#FFFFFF;stroke-width:1.4091;stroke-miterlimit:10;}
	.st42{fill:none;stroke:#FFFFFF;stroke-width:1.2731;stroke-miterlimit:10;}
	.st43{fill:none;stroke:#FFFFFF;stroke-width:1.1398;stroke-miterlimit:10;}
	.st44{fill:none;stroke:#FFFFFF;stroke-width:1.0211;stroke-miterlimit:10;}
	.st45{fill:none;stroke:#FFFFFF;stroke-width:0.9186;stroke-miterlimit:10;}
	.st46{fill:none;stroke:#FFFFFF;stroke-width:0.8148;stroke-miterlimit:10;}
	.st47{fill:none;stroke:#FFFFFF;stroke-width:0.7203;stroke-miterlimit:10;}
	.st48{fill:none;stroke:#FFFFFF;stroke-width:0.6285;stroke-miterlimit:10;}
	.st49{fill:none;stroke:#FFFFFF;stroke-width:0.5349;stroke-miterlimit:10;}
	.st50{fill:none;stroke:#FFFFFF;stroke-width:0.4545;stroke-miterlimit:10;}
	.st51{fill:none;stroke:#FFFFFF;stroke-width:0.3644;stroke-miterlimit:10;}
	.st52{fill:none;stroke:#FFFFFF;stroke-width:0.2938;stroke-miterlimit:10;}
	.st53{fill:none;stroke:#FFFFFF;stroke-width:0.2129;stroke-miterlimit:10;}
	.st54{fill:none;stroke:#FFFFFF;stroke-width:0.1426;stroke-miterlimit:10;}
	.st55{fill:none;stroke:#FFFFFF;stroke-width:1.1309;stroke-miterlimit:10;}
	.st56{fill:none;stroke:#FFFFFF;stroke-width:1.075;stroke-miterlimit:10;}
	.st57{fill:none;stroke:#FFFFFF;stroke-width:1.0117;stroke-miterlimit:10;}
	.st58{fill:none;stroke:#FFFFFF;stroke-width:0.9309;stroke-miterlimit:10;}
	.st59{fill:none;stroke:#FFFFFF;stroke-width:0.8683;stroke-miterlimit:10;}
	.st60{fill:none;stroke:#FFFFFF;stroke-width:0.7972;stroke-miterlimit:10;}
	.st61{fill:none;stroke:#FFFFFF;stroke-width:0.7435;stroke-miterlimit:10;}
	.st62{fill:none;stroke:#FFFFFF;stroke-width:0.6717;stroke-miterlimit:10;}
	.st63{fill:none;stroke:#FFFFFF;stroke-width:0.6014;stroke-miterlimit:10;}
	.st64{fill:none;stroke:#FFFFFF;stroke-width:0.5388;stroke-miterlimit:10;}
	.st65{fill:none;stroke:#FFFFFF;stroke-width:0.4847;stroke-miterlimit:10;}
	.st66{fill:none;stroke:#FFFFFF;stroke-width:0.4299;stroke-miterlimit:10;}
	.st67{fill:none;stroke:#FFFFFF;stroke-width:0.3801;stroke-miterlimit:10;}
	.st68{fill:none;stroke:#FFFFFF;stroke-width:0.3316;stroke-miterlimit:10;}
	.st69{fill:none;stroke:#FFFFFF;stroke-width:0.2822;stroke-miterlimit:10;}
	.st70{fill:none;stroke:#FFFFFF;stroke-width:0.2398;stroke-miterlimit:10;}
	.st71{fill:none;stroke:#FFFFFF;stroke-width:0.1922;stroke-miterlimit:10;}
	.st72{fill:none;stroke:#FFFFFF;stroke-width:0.155;stroke-miterlimit:10;}
	.st73{fill:none;stroke:#FFFFFF;stroke-width:0.1123;stroke-miterlimit:10;}
	.st74{fill:none;stroke:#FFFFFF;stroke-width:7.526462e-02;stroke-miterlimit:10;}
	.st75{fill:url(#SVGID_15_);}
	.st76{fill:url(#SVGID_16_);}
	.st77{fill:url(#SVGID_17_);}
	.st78{fill:url(#SVGID_18_);}
	.st79{fill:url(#SVGID_19_);}
	.st80{fill:url(#SVGID_20_);}
	.st81{fill:url(#SVGID_21_);}
	.st82{fill:url(#SVGID_22_);}
	.st83{fill:url(#SVGID_23_);}
</style>
<g id="Calque_2">
	<g>
		<linearGradient id="SVGID_1_" gradientUnits="userSpaceOnUse" x1="1503.6799" y1="470.445" x2="1920" y2="470.445">
			<stop  offset="0" style="stop-color:#94B6FF"/>
			<stop  offset="1" style="stop-color:#FFFFFF;stop-opacity:0"/>
		</linearGradient>
		<path class="st0" d="M1920,225.6v489.7c-40.3,22.5-86.8,35.3-136.2,35.3c-80,0-152.3-33.6-203.3-87.4
			c-47.6-50.2-76.8-118.1-76.8-192.7c0-154.7,125.4-280.1,280.1-280.1C1833.2,190.3,1879.7,203.1,1920,225.6z"/>
	</g>
	<g>
		<linearGradient id="SVGID_2_" gradientUnits="userSpaceOnUse" x1="1201.7034" y1="2204.9678" x2="1914" y2="2204.9678">
			<stop  offset="0" style="stop-color:#94B6FF"/>
			<stop  offset="0.205" style="stop-color:#98B9FF;stop-opacity:0.795"/>
			<stop  offset="0.396" style="stop-color:#A3C0FF;stop-opacity:0.604"/>
			<stop  offset="0.5815" style="stop-color:#B6CDFF;stop-opacity:0.4185"/>
			<stop  offset="0.7635" style="stop-color:#D0DFFF;stop-opacity:0.2365"/>
			<stop  offset="0.9414" style="stop-color:#F2F6FF;stop-opacity:5.858141e-02"/>
			<stop  offset="1" style="stop-color:#FFFFFF;stop-opacity:0"/>
		</linearGradient>
		<path class="st1" d="M1914,2016.5v376.8c-9,15.8-19.3,31.2-30.8,45.9c-129.4,166-368.8,195.6-534.7,66.2
			c-166-129.4-195.6-368.8-66.2-534.7c129.4-166,368.8-195.6,534.8-66.2C1857.6,1936.1,1890,1974.4,1914,2016.5z"/>
	</g>
	<g>
		<linearGradient id="SVGID_3_" gradientUnits="userSpaceOnUse" x1="0" y1="4071.3813" x2="700.3563" y2="4071.3813">
			<stop  offset="0" style="stop-color:#94B6FF"/>
			<stop  offset="0.205" style="stop-color:#98B9FF;stop-opacity:0.795"/>
			<stop  offset="0.396" style="stop-color:#A3C0FF;stop-opacity:0.604"/>
			<stop  offset="0.5815" style="stop-color:#B6CDFF;stop-opacity:0.4185"/>
			<stop  offset="0.7635" style="stop-color:#D0DFFF;stop-opacity:0.2365"/>
			<stop  offset="0.9414" style="stop-color:#F2F6FF;stop-opacity:5.858141e-02"/>
			<stop  offset="1" style="stop-color:#FFFFFF;stop-opacity:0"/>
		</linearGradient>
		<path class="st2" d="M622.6,4297.6c-124.9,160.3-356.2,188.9-516.4,64c-46.8-36.5-82.4-82-106.2-132.2v-316
			c11.3-23.7,25.3-46.6,42.2-68.2c125-160.3,356.2-188.9,516.4-64S747.5,4137.3,622.6,4297.6z"/>
	</g>
	<g>
		<linearGradient id="SVGID_4_" gradientUnits="userSpaceOnUse" x1="1430.6621" y1="3198.4812" x2="1920" y2="3198.4812">
			<stop  offset="0" style="stop-color:#F190AE"/>
			<stop  offset="1" style="stop-color:#FF7BAC;stop-opacity:0"/>
		</linearGradient>
		<path class="st3" d="M1920,3012.2v372.7c-10.6,11.8-22.3,22.9-35.1,33.1c-121.2,96.1-297.4,75.8-393.6-45.4
			c-96.2-121.2-75.8-297.4,45.3-393.6C1653.7,2886.2,1822,2901.9,1920,3012.2z"/>
	</g>
	<g>
		<linearGradient id="SVGID_5_" gradientUnits="userSpaceOnUse" x1="1580.2773" y1="673.0358" x2="1920" y2="673.0358">
			<stop  offset="0" style="stop-color:#F190AE"/>
			<stop  offset="1" style="stop-color:#FF7BAC;stop-opacity:0"/>
		</linearGradient>
		<path class="st4" d="M1920,495.7v354.7c-92.9,64.9-221.5,47-292.9-43c-33.8-42.5-48.9-93.9-46.6-144.2
			c2.8-60.3,30.6-119,81.6-159.5C1738.7,443,1843.7,442.5,1920,495.7z"/>
	</g>
	<g>
		<linearGradient id="SVGID_6_" gradientUnits="userSpaceOnUse" x1="184.6888" y1="496.8978" x2="55.2069" y2="195.7343">
			<stop  offset="0" style="stop-color:#F190AE"/>
			<stop  offset="7.236987e-02" style="stop-color:#F38DAE;stop-opacity:0.9276"/>
			<stop  offset="0.5651" style="stop-color:#FC80AC;stop-opacity:0.4349"/>
			<stop  offset="1" style="stop-color:#FF7BAC;stop-opacity:0"/>
		</linearGradient>
		<polygon class="st5" points="212.4,485 55.3,417.5 2,394.6 2,272.5 35.2,247.7 172.3,145.4 192.3,315.2 		"/>
	</g>
	<linearGradient id="SVGID_7_" gradientUnits="userSpaceOnUse" x1="178.4089" y1="582.37" x2="3" y2="582.37">
		<stop  offset="0" style="stop-color:#FFC52E"/>
		<stop  offset="1" style="stop-color:#FFEDD4;stop-opacity:0"/>
	</linearGradient>
	<path class="st6" d="M178.4,582.4c0,115.5-73,213.9-175.4,251.6V330.7C105.4,368.5,178.4,466.9,178.4,582.4z"/>
	
		<linearGradient id="SVGID_8_" gradientUnits="userSpaceOnUse" x1="2443.5242" y1="3107.9229" x2="3020.5378" y2="3107.9229" gradientTransform="matrix(0.7071 -0.7071 0.7071 0.7071 -3273.4343 1495.2306)">
		<stop  offset="0" style="stop-color:#FFC52E"/>
		<stop  offset="1" style="stop-color:#FFEDD4"/>
	</linearGradient>
	<polygon class="st7" points="679.4,1584.4 883.4,1380.3 958,1659 1032.7,1937.7 754,1863 475.4,1788.4 	"/>
	
		<linearGradient id="SVGID_9_" gradientUnits="userSpaceOnUse" x1="1508.8429" y1="4276.1699" x2="1998.6676" y2="4276.1699" gradientTransform="matrix(0.9003 -0.9003 0.933 0.933 -4670.1201 780.8323)">
		<stop  offset="0" style="stop-color:#FFC52E"/>
		<stop  offset="1" style="stop-color:#FFEDD4"/>
	</linearGradient>
	<polygon class="st8" points="700.5,2993.4 921,2772.9 1008.6,3081.1 1096.2,3389.2 788.1,3301.6 479.9,3213.9 	"/>
</g>
<g id="Calque_1">
	<g>
		
			<linearGradient id="SVGID_10_" gradientUnits="userSpaceOnUse" x1="960" y1="2736.1904" x2="960" y2="8999.1904" gradientTransform="matrix(-1 0 0 -1 1920 8999.1904)">
			<stop  offset="0" style="stop-color:#C9D9FF"/>
			<stop  offset="0.2629" style="stop-color:#CDDCFF;stop-opacity:0.7371"/>
			<stop  offset="0.5464" style="stop-color:#DAE5FF;stop-opacity:0.4536"/>
			<stop  offset="0.8384" style="stop-color:#F0F4FF;stop-opacity:0.1616"/>
			<stop  offset="1" style="stop-color:#FFFFFF;stop-opacity:0"/>
		</linearGradient>
		<rect x="0" class="st9" width="1920" height="6263"/>
	</g>
</g>
<g id="Calque_3">
	<linearGradient id="SVGID_11_" gradientUnits="userSpaceOnUse" x1="1528.5796" y1="6011.8921" x2="1576.7953" y2="6011.8921">
		<stop  offset="0" style="stop-color:#FFF2FF"/>
		<stop  offset="0.9831" style="stop-color:#FFABDC;stop-opacity:0.9831"/>
		<stop  offset="1" style="stop-color:#FFAADB"/>
	</linearGradient>
	<circle class="st10" cx="1552.7" cy="6011.9" r="24.1"/>
	<linearGradient id="SVGID_12_" gradientUnits="userSpaceOnUse" x1="1469.5796" y1="5031.543" x2="1520.4935" y2="5031.543">
		<stop  offset="0" style="stop-color:#FFF2FF"/>
		<stop  offset="0.9831" style="stop-color:#FFABDC;stop-opacity:0.9831"/>
		<stop  offset="1" style="stop-color:#FFAADB"/>
	</linearGradient>
	<circle class="st11" cx="1495" cy="5031.5" r="25.5"/>
	<linearGradient id="SVGID_13_" gradientUnits="userSpaceOnUse" x1="454.5796" y1="2712.043" x2="480.4936" y2="2712.043">
		<stop  offset="0" style="stop-color:#FFF2FF"/>
		<stop  offset="0.9831" style="stop-color:#FFABDC;stop-opacity:0.9831"/>
		<stop  offset="1" style="stop-color:#FFAADB"/>
	</linearGradient>
	<circle class="st12" cx="467.5" cy="2712" r="13"/>
	<linearGradient id="SVGID_14_" gradientUnits="userSpaceOnUse" x1="522.3815" y1="2145.1833" x2="576" y2="2145.1833">
		<stop  offset="0" style="stop-color:#FFF2FF"/>
		<stop  offset="0.9831" style="stop-color:#FFABDC;stop-opacity:0.9831"/>
		<stop  offset="1" style="stop-color:#FFAADB"/>
	</linearGradient>
	<circle class="st13" cx="549.2" cy="2145.2" r="26.8"/>
	<path class="st14" d="M725,4432.9c0,0-18.5,2.2-19.1-7.6c0,0,2.9-2.2,11.6-1.1c0,0-7.6-5.7-6.2-8.4s17.7,1.8,17.4,8.7
		c0,0,13.2-10,23.6,1c0,0,6.1,3.2-3.5,11.3c0,0-1,4,0.8,6.4s5.6,8.4-1.3,19.4c0,0-1.1,2.5,1.9,2.9c3,0.3,5.9-0.2,6.7,1.8
		s-5.7,5.1-5.7,5.1s-2.5,1.3-10.2-1.8c0,0-25.2,1.1-32.8,17.5c0,0,1,6.8-5.7,15.8s-7.5,10.7-9.7,11.2c-2.2,0.5-3.7-0.6-3.2-4.9
		c0,0,3.2-5.1,1.8-7.3c0,0-17.2,3.3-14.7-7.3c0,0,0.8-1.9,4.5-0.5c0,0-14.7-12.7-0.6-30.9c0,0,10.5-10.7,28-17.2
		C726,4440.2,725,4432.9,725,4432.9z"/>
	<path class="st14" d="M1730.2,1925.1c0,0-21.8,2.6-22.6-9c0,0,3.4-2.6,13.7-1.3c0,0-9-6.8-7.3-10c1.7-3.2,20.9,2.1,20.5,10.3
		c0,0,15.6-11.8,27.8,1.2c0,0,7.1,3.8-4.1,13.3c0,0-1.1,4.7,0.9,7.5s6.6,10-1.5,22.9c0,0-1.3,3,2.3,3.4c3.6,0.4,7-0.2,7.9,2.1
		c0.9,2.3-6.8,6-6.8,6s-3,1.5-12-2.1c0,0-29.7,1.3-38.7,20.7c0,0,1.1,8.1-6.8,18.6s-8.8,12.6-11.5,13.2c-2.6,0.6-4.3-0.8-3.8-5.8
		c0,0,3.8-6,2.1-8.6c0,0-20.3,3.9-17.3-8.6c0,0,0.9-2.3,5.3-0.6c0,0-17.3-15-0.8-36.5c0,0,12.4-12.6,33.1-20.3
		S1730.2,1925.1,1730.2,1925.1z"/>
	<path class="st14" d="M1726.6,721.9c0,0,26.8,3.2,27.7-11.1c0,0-4.2-3.2-16.8-1.6c0,0,11.1-8.3,9-12.2c-2.1-3.9-25.6,2.6-25.1,12.6
		c0,0-19.1-14.5-34.1,1.5c0,0-8.8,4.6,5.1,16.4c0,0,1.4,5.8-1.2,9.2c-2.5,3.5-8.1,12.2,1.8,28.1c0,0,1.6,3.7-2.8,4.2
		s-8.5-0.2-9.7,2.5c-1.2,2.8,8.3,7.4,8.3,7.4s3.7,1.8,14.8-2.5c0,0,36.5,1.6,47.5,25.4c0,0-1.4,9.9,8.3,22.8
		c9.7,12.9,10.8,15.5,14.1,16.1s5.3-0.9,4.6-7.2c0,0-4.6-7.4-2.5-10.6c0,0,24.9,4.8,21.2-10.6c0,0-1.2-2.8-6.5-0.7
		c0,0,21.2-18.5,0.9-44.8c0,0-15.2-15.5-40.6-24.9C1725.2,732.5,1726.6,721.9,1726.6,721.9z"/>
	<path class="st14" d="M1583,5964.7c0,0,15.7-3.4,13.4-11.6c0,0-3-1-9.8,2.4c0,0,4.6-6.8,2.7-8.6c-1.9-1.8-13.9,6.4-11.7,12
		c0,0-13.6-4.4-18.9,7.5c0,0-4,4.3,6,8.2c0,0,1.9,3,1.1,5.4c-0.8,2.4-2.2,8.4,6.5,15.4c0,0,1.6,1.8-0.7,2.9
		c-2.4,1.1-4.8,1.5-4.9,3.3c-0.1,1.8,6.1,2.5,6.1,2.5s2.4,0.3,7.8-4.3c0,0,20.8-6.2,31.6,5c0,0,1.2,5.8,9.1,11.2
		c8,5.4,9.1,6.6,11,6.3s2.8-1.5,1.2-4.9c0,0-4-3.2-3.5-5.5c0,0,14.9-2.1,9.9-10.1c0,0-1.2-1.3-3.8,0.9c0,0,8.3-14.5-8.2-25.3
		c0,0-11.6-5.7-27.6-6.1C1584.3,5970.9,1583,5964.7,1583,5964.7z"/>
	<g>
		<circle class="st15" cx="1399.7" cy="591.7" r="280"/>
		<circle class="st16" cx="1399.7" cy="591.7" r="266.2"/>
		<circle class="st17" cx="1399.7" cy="591.7" r="250.5"/>
		<circle class="st18" cx="1399.7" cy="591.7" r="230.5"/>
		<circle class="st19" cx="1399.7" cy="591.7" r="215"/>
		<circle class="st20" cx="1399.7" cy="591.7" r="197.4"/>
		<circle class="st21" cx="1399.7" cy="591.7" r="184.1"/>
		<circle class="st22" cx="1399.7" cy="591.7" r="166.3"/>
		<circle class="st23" cx="1399.7" cy="591.7" r="148.9"/>
		<circle class="st24" cx="1399.7" cy="591.7" r="133.4"/>
		<circle class="st25" cx="1399.7" cy="591.7" r="120"/>
		<circle class="st26" cx="1399.7" cy="591.7" r="106.4"/>
		<circle class="st27" cx="1399.7" cy="591.7" r="94.1"/>
		<circle class="st28" cx="1399.7" cy="591.7" r="82.1"/>
		<circle class="st29" cx="1399.7" cy="591.7" r="69.9"/>
		<circle class="st30" cx="1399.7" cy="591.7" r="59.4"/>
		<circle class="st31" cx="1399.7" cy="591.7" r="47.6"/>
		<circle class="st32" cx="1399.7" cy="591.7" r="38.4"/>
		<circle class="st33" cx="1399.7" cy="591.7" r="27.8"/>
		<circle class="st34" cx="1399.7" cy="591.7" r="18.6"/>
	</g>
	<g>
		<path class="st35" d="M0,5719.5c81.4,41.2,173.4,64.5,270.9,64.5c331.4,0,600.1-268.7,600.1-600.1
			c0-331.4-268.7-600.1-600.1-600.1c-97.5,0-189.5,23.2-270.9,64.5"/>
		<path class="st36" d="M0,5686c80.6,43.6,172.8,68.3,270.9,68.3c315.1,0,570.5-255.4,570.5-570.5c0-315.1-255.4-570.5-570.5-570.5
			c-98,0-190.3,24.7-270.9,68.3"/>
		<path class="st37" d="M0,5647.5c79.5,46.6,172.1,73.2,270.9,73.2c296.5,0,536.9-240.4,536.9-536.9
			c0-296.5-240.4-536.9-536.9-536.9c-98.8,0-191.4,26.7-270.9,73.2"/>
		<path class="st38" d="M0,5597.1c77.8,51.1,170.9,80.8,270.9,80.8c272.8,0,494-221.2,494-494c0-272.8-221.2-494-494-494
			c-100,0-193.1,29.7-270.9,80.8"/>
		<path class="st39" d="M0,5556.7c76,55.3,169.6,88,270.9,88c254.5,0,460.8-206.3,460.8-460.8c0-254.5-206.3-460.8-460.8-460.8
			C169.6,4723,76,4755.7,0,4811"/>
		<path class="st40" d="M0,5508.8c73.4,61.2,167.8,98.1,270.9,98.1c233.6,0,423.1-189.4,423.1-423.1
			c0-233.6-189.4-423.1-423.1-423.1c-103,0-197.5,36.8-270.9,98.1"/>
		<path class="st41" d="M0,5470.7c70.7,66.8,166,107.7,270.9,107.7c217.9,0,394.5-176.6,394.5-394.6
			c0-217.9-176.6-394.5-394.5-394.5C166,4789.3,70.7,4830.2,0,4897"/>
		<path class="st42" d="M0,5415.6c65.4,76.4,162.5,124.7,270.9,124.7c196.9,0,356.5-159.6,356.5-356.5
			c0-196.9-159.6-356.5-356.5-356.5c-108.4,0-205.5,48.4-270.9,124.7"/>
		<path class="st43" d="M0,5352.7c56.4,90.3,156.6,150.3,270.9,150.3c176.3,0,319.1-142.9,319.1-319.2
			c0-176.3-142.9-319.1-319.1-319.1c-114.3,0-214.5,60-270.9,150.3"/>
		<path class="st44" d="M0,5275.6c38.2,112.9,145.1,194.1,270.9,194.1c157.9,0,285.9-128,285.9-285.9c0-157.9-128-285.9-285.9-285.9
			c-125.8,0-232.6,81.2-270.9,194.1"/>
		<circle class="st45" cx="270.9" cy="5183.8" r="257.2"/>
		<circle class="st46" cx="270.9" cy="5183.8" r="228.1"/>
		<circle class="st47" cx="270.9" cy="5183.8" r="201.7"/>
		<circle class="st48" cx="270.9" cy="5183.8" r="176"/>
		<circle class="st49" cx="270.9" cy="5183.8" r="149.8"/>
		<circle class="st50" cx="270.9" cy="5183.8" r="127.3"/>
		<circle class="st51" cx="270.9" cy="5183.8" r="102"/>
		<circle class="st52" cx="270.9" cy="5183.8" r="82.3"/>
		<circle class="st53" cx="270.9" cy="5183.8" r="59.6"/>
		<circle class="st54" cx="270.9" cy="5183.8" r="39.9"/>
	</g>
	<g>
		<circle class="st55" cx="797.4" cy="2872.4" r="316.6"/>
		<circle class="st56" cx="797.4" cy="2872.4" r="301"/>
		<circle class="st57" cx="797.4" cy="2872.4" r="283.3"/>
		<circle class="st58" cx="797.4" cy="2872.4" r="260.7"/>
		<circle class="st59" cx="797.4" cy="2872.4" r="243.1"/>
		<circle class="st60" cx="797.4" cy="2872.4" r="223.2"/>
		<circle class="st61" cx="797.4" cy="2872.4" r="208.2"/>
		<circle class="st62" cx="797.4" cy="2872.4" r="188.1"/>
		<circle class="st63" cx="797.4" cy="2872.4" r="168.4"/>
		<circle class="st64" cx="797.4" cy="2872.4" r="150.9"/>
		<circle class="st65" cx="797.4" cy="2872.4" r="135.7"/>
		<circle class="st66" cx="797.4" cy="2872.4" r="120.4"/>
		<circle class="st67" cx="797.4" cy="2872.4" r="106.4"/>
		<circle class="st68" cx="797.4" cy="2872.4" r="92.8"/>
		<circle class="st69" cx="797.4" cy="2872.4" r="79"/>
		<circle class="st70" cx="797.4" cy="2872.4" r="67.1"/>
		<circle class="st71" cx="797.4" cy="2872.4" r="53.8"/>
		<circle class="st72" cx="797.4" cy="2872.4" r="43.4"/>
		<circle class="st73" cx="797.4" cy="2872.4" r="31.5"/>
		<circle class="st74" cx="797.4" cy="2872.4" r="21.1"/>
	</g>
	<linearGradient id="SVGID_15_" gradientUnits="userSpaceOnUse" x1="350" y1="1103.5" x2="401" y2="1103.5">
		<stop  offset="0" style="stop-color:#FFC52E"/>
		<stop  offset="1" style="stop-color:#FFEDD4"/>
	</linearGradient>
	<circle class="st75" cx="375.5" cy="1103.5" r="25.5"/>
	<linearGradient id="SVGID_16_" gradientUnits="userSpaceOnUse" x1="1699" y1="582" x2="1739" y2="582">
		<stop  offset="0" style="stop-color:#FFC52E"/>
		<stop  offset="1" style="stop-color:#FFEDD4"/>
	</linearGradient>
	<circle class="st76" cx="1719" cy="582" r="20"/>
	<linearGradient id="SVGID_17_" gradientUnits="userSpaceOnUse" x1="1030" y1="4416" x2="1080" y2="4416">
		<stop  offset="0" style="stop-color:#FFC52E"/>
		<stop  offset="1" style="stop-color:#FFEDD4"/>
	</linearGradient>
	<circle class="st77" cx="1055" cy="4416" r="25"/>
	<linearGradient id="SVGID_18_" gradientUnits="userSpaceOnUse" x1="286" y1="5911" x2="374" y2="5911">
		<stop  offset="0" style="stop-color:#FFC52E"/>
		<stop  offset="1" style="stop-color:#FFEDD4"/>
	</linearGradient>
	<circle class="st78" cx="330" cy="5911" r="44"/>
	<linearGradient id="SVGID_19_" gradientUnits="userSpaceOnUse" x1="1615" y1="4209" x2="1645" y2="4209">
		<stop  offset="0" style="stop-color:#FFC52E"/>
		<stop  offset="1" style="stop-color:#FFEDD4"/>
	</linearGradient>
	<circle class="st79" cx="1630" cy="4209" r="15"/>
	<linearGradient id="SVGID_20_" gradientUnits="userSpaceOnUse" x1="1920.5" y1="5471.75" x2="1711.64" y2="5471.75">
		<stop  offset="0" style="stop-color:#FFC52E;stop-opacity:0.4"/>
		<stop  offset="1" style="stop-color:#FFEDD4;stop-opacity:0"/>
	</linearGradient>
	<path class="st80" d="M1920.5,5196.6v550.4c-120.5-33.5-208.9-144-208.9-275.2S1800,5230.1,1920.5,5196.6z"/>
	<g>
		
			<linearGradient id="SVGID_21_" gradientUnits="userSpaceOnUse" x1="1796.2035" y1="-1347.8451" x2="1431.4891" y2="-2196.1389" gradientTransform="matrix(-0.6602 0.7511 -0.7511 -0.6602 312.8976 2631.1787)">
			<stop  offset="0" style="stop-color:#F190AE;stop-opacity:0.5"/>
			<stop  offset="7.236987e-02" style="stop-color:#F38DAE;stop-opacity:0.4638"/>
			<stop  offset="0.5651" style="stop-color:#FC80AC;stop-opacity:0.2175"/>
			<stop  offset="1" style="stop-color:#FF7BAC;stop-opacity:0"/>
		</linearGradient>
		<polygon class="st81" points="842.8,5099.3 535.8,5448.5 386.9,5008.1 238,4567.7 693.8,4659 1149.7,4750.2 		"/>
	</g>
	<g>
		
			<radialGradient id="SVGID_22_" cx="492.1175" cy="-317.5307" r="226.8259" gradientTransform="matrix(-0.9187 -0.395 0.395 -0.9187 1982.049 3867.9978)" gradientUnits="userSpaceOnUse">
			<stop  offset="0.1841" style="stop-color:#FF7BAC;stop-opacity:0"/>
			<stop  offset="1" style="stop-color:#F190AE;stop-opacity:0.4"/>
		</radialGradient>
		<polygon class="st82" points="1321.6,4158.3 1098.8,4062.5 1293.1,3917.4 1487.5,3772.4 1515.9,4013.2 1544.4,4254 		"/>
	</g>
	<g>
		<linearGradient id="SVGID_23_" gradientUnits="userSpaceOnUse" x1="1529.0107" y1="4689.7012" x2="1920.5" y2="4689.7012">
			<stop  offset="0" style="stop-color:#94B6FF;stop-opacity:0.5"/>
			<stop  offset="0.4437" style="stop-color:#96B7FF;stop-opacity:0.2782"/>
			<stop  offset="0.6035" style="stop-color:#9DBCFF;stop-opacity:0.1983"/>
			<stop  offset="0.7174" style="stop-color:#A8C4FF;stop-opacity:0.1413"/>
			<stop  offset="0.8095" style="stop-color:#B9CFFF;stop-opacity:9.527150e-02"/>
			<stop  offset="0.8883" style="stop-color:#CFDEFF;stop-opacity:5.583239e-02"/>
			<stop  offset="0.9569" style="stop-color:#EAF1FF;stop-opacity:2.152869e-02"/>
			<stop  offset="1" style="stop-color:#FFFFFF;stop-opacity:0"/>
		</linearGradient>
		<path class="st83" d="M1920.5,4439.1v501.2c-137.6,63.5-300.9,4-365.3-133.4c-64.7-138-5.3-302.3,132.7-367
			C1764.5,4404,1849.2,4406.3,1920.5,4439.1z"/>
	</g>
</g>
</svg>
