<?xml version="1.0" encoding="utf-8"?>
<!-- Generator: Adobe Illustrator 25.3.1, SVG Export Plug-In . SVG Version: 6.00 Build 0)  -->
<svg version="1.1" id="Calque_1" xmlns:serif="http://www.serif.com/"
	 xmlns="http://www.w3.org/2000/svg" xmlns:xlink="http://www.w3.org/1999/xlink" x="0px" y="0px" viewBox="0 0 1920 1080"
	 style="enable-background:new 0 0 1920 1080;" xml:space="preserve">
<style type="text/css">
	.st0{fill-rule:evenodd;clip-rule:evenodd;fill:#D62B9D;}
</style>
<path class="st0" d="M1368.1,0c72.8,0,131.9,59.1,131.9,131.9v816.1c0,72.8-59.1,131.9-131.9,131.9H551.9
	c-72.8,0-131.9-59.1-131.9-131.9V131.9C420,59.1,479.1,0,551.9,0L1368.1,0L1368.1,0z M832.4,895.5c286.7,0,443.5-237.6,443.5-443.5
	c0-6.8,0-13.6-0.3-20c30.4-22,56.9-49.5,77.9-80.8c-27.8,12.3-57.9,20.7-89.5,24.6c32.3-19.4,56.9-49.8,68.5-86.3
	c-30.1,17.8-63.4,30.7-98.9,37.8c-28.4-30.4-68.9-49.1-113.8-49.1c-86,0-155.8,69.8-155.8,155.8c0,12.3,1.3,24.2,4.2,35.6
	c-129.6-6.5-244.4-68.5-321.3-162.9c-13.3,23-21,49.8-21,78.2c0,54,27.5,101.8,69.5,129.6c-25.5-0.6-49.5-7.8-70.5-19.4v1.9
	c0,75.6,53.7,138.4,125.1,152.9c-12.9,3.6-26.8,5.5-41.1,5.5c-10,0-19.7-1-29.4-2.9c19.7,62.1,77.3,107,145.5,108.3
	c-53.3,41.7-120.6,66.6-193.6,66.6c-12.6,0-24.9-0.6-37.2-2.3C662.4,869.7,744.5,895.5,832.4,895.5L832.4,895.5z"/>
</svg>
