<?xml version="1.0" encoding="utf-8"?>
<!-- Generator: Adobe Illustrator 25.3.1, SVG Export Plug-In . SVG Version: 6.00 Build 0)  -->
<svg version="1.1" id="Calque_1" xmlns:serif="http://www.serif.com/"
	 xmlns="http://www.w3.org/2000/svg" xmlns:xlink="http://www.w3.org/1999/xlink" x="0px" y="0px" viewBox="0 0 1920 1080"
	 style="enable-background:new 0 0 1920 1080;" xml:space="preserve">
<style type="text/css">
	.st0{fill-rule:evenodd;clip-rule:evenodd;fill:#D62B9D;}
</style>
<path class="st0" d="M1368.1,0c72.8,0,131.9,59.1,131.9,131.9v816.1c0,72.8-59.1,131.9-131.9,131.9H551.9
	c-72.8,0-131.9-59.1-131.9-131.9V131.9C420,59.1,479.1,0,551.9,0L1368.1,0L1368.1,0z M1323.8,370.5c-8.7-32.7-34.5-58.4-67.1-67.1
	c-59.2-15.9-296.7-15.9-296.7-15.9s-237.5,0-296.7,15.9c-32.7,8.7-58.4,34.5-67.1,67.1c-15.9,59.2-15.9,182.8-15.9,182.8
	s0,123.6,15.9,182.8c8.7,32.7,34.5,58.4,67.1,67.1C722.5,819,960,819,960,819s237.5,0,296.7-15.9c32.7-8.7,58.4-34.5,67.1-67.1
	c15.9-59.2,15.9-182.8,15.9-182.8S1339.7,429.7,1323.8,370.5z M884.1,667.2V439.3l197.3,113.9L884.1,667.2L884.1,667.2z"/>
</svg>
