<?xml version="1.0" encoding="utf-8"?>
<!-- Generator: Adobe Illustrator 25.3.1, SVG Export Plug-In . SVG Version: 6.00 Build 0)  -->
<svg version="1.1" id="Calque_1" xmlns:serif="http://www.serif.com/"
	 xmlns="http://www.w3.org/2000/svg" xmlns:xlink="http://www.w3.org/1999/xlink" x="0px" y="0px" viewBox="0 0 1920 1080"
	 style="enable-background:new 0 0 1920 1080;" xml:space="preserve">
<style type="text/css">
	.st0{fill-rule:evenodd;clip-rule:evenodd;fill:#D62B9D;}
</style>
<path class="st0" d="M1368.1,0c72.8,0,131.9,59.1,131.9,131.9v816.1c0,72.8-59.1,131.9-131.9,131.9H551.9
	c-72.8,0-131.9-59.1-131.9-131.9V131.9C420,59.1,479.1,0,551.9,0L1368.1,0L1368.1,0z M960,170.9c-100.3,0-112.8,0.4-152.2,2.2
	c-39.3,1.8-66.1,8-89.6,17.2c-24.3,9.4-44.9,22.1-65.4,42.6c-20.5,20.5-33.1,41.1-42.6,65.4c-9.1,23.5-15.4,50.3-17.2,89.6
	c-1.8,39.4-2.2,51.9-2.2,152.2s0.4,112.8,2.2,152.2c1.8,39.3,8,66.1,17.2,89.6c9.4,24.3,22.1,44.9,42.6,65.4
	c20.5,20.5,41.1,33.1,65.4,42.6c23.5,9.1,50.3,15.4,89.6,17.2c39.4,1.8,51.9,2.2,152.2,2.2s112.8-0.4,152.2-2.2
	c39.3-1.8,66.1-8,89.6-17.2c24.3-9.4,44.9-22.1,65.4-42.6c20.5-20.5,33.1-41.1,42.6-65.4c9.1-23.5,15.4-50.3,17.2-89.6
	c1.8-39.4,2.2-51.9,2.2-152.2s-0.4-112.8-2.2-152.2c-1.8-39.3-8-66.1-17.2-89.6c-9.4-24.3-22.1-44.9-42.6-65.4
	c-20.5-20.5-41.1-33.1-65.4-42.6c-23.5-9.1-50.3-15.4-89.6-17.2C1072.8,171.3,1060.3,170.9,960,170.9L960,170.9z M960,237.4
	c98.6,0,110.2,0.4,149.2,2.2c36,1.6,55.5,7.7,68.5,12.7c17.2,6.7,29.5,14.7,42.4,27.6c12.9,12.9,20.9,25.2,27.6,42.4
	c5.1,13,11.1,32.6,12.7,68.5c1.8,38.9,2.2,50.6,2.2,149.2s-0.4,110.2-2.2,149.2c-1.6,36-7.7,55.5-12.7,68.5
	c-6.7,17.2-14.7,29.5-27.6,42.4c-12.9,12.9-25.2,20.9-42.4,27.6c-13,5.1-32.6,11.1-68.5,12.7c-38.9,1.8-50.6,2.2-149.2,2.2
	s-110.2-0.4-149.2-2.2c-36-1.6-55.5-7.7-68.5-12.7c-17.2-6.7-29.5-14.7-42.4-27.6c-12.9-12.9-20.9-25.2-27.6-42.4
	c-5.1-13-11.1-32.6-12.7-68.5c-1.8-38.9-2.2-50.6-2.2-149.2s0.4-110.2,2.2-149.2c1.6-36,7.7-55.5,12.7-68.5
	c6.7-17.2,14.7-29.5,27.6-42.4c12.9-12.9,25.2-20.9,42.4-27.6c13-5.1,32.6-11.1,68.5-12.7C849.8,237.7,861.4,237.4,960,237.4
	L960,237.4z M960,350.4c-104.7,0-189.6,84.9-189.6,189.6S855.3,729.6,960,729.6s189.6-84.9,189.6-189.6S1064.7,350.4,960,350.4
	L960,350.4z M960,663c-68,0-123-55.1-123-123S892,417,960,417s123,55.1,123,123S1028,663,960,663z M1201.3,343
	c0,24.5-19.8,44.3-44.3,44.3c-24.5,0-44.3-19.8-44.3-44.3s19.8-44.3,44.3-44.3C1181.5,298.7,1201.3,318.5,1201.3,343L1201.3,343z"/>
</svg>
