<?xml version="1.0" encoding="utf-8"?>
<!-- Generator: Adobe Illustrator 22.0.1, SVG Export Plug-In . SVG Version: 6.00 Build 0)  -->
<svg version="1.1" id="Calque_1" xmlns:serif="http://www.serif.com/"
	 xmlns="http://www.w3.org/2000/svg" xmlns:xlink="http://www.w3.org/1999/xlink" x="0px" y="0px" viewBox="0 0 1920 1080"
	 style="enable-background:new 0 0 1920 1080;" xml:space="preserve">
<style type="text/css">
	.st0{display:none;opacity:0.31;fill:#D62B9D;}
	.st1{display:none;}
	.st2{display:inline;fill:#D62B9D;}
	.st3{fill:#D62B9D;}
</style>
<path class="st0" d="M1368.1,0c72.8,0,131.9,59.1,131.9,131.9V948c0,72.8-59.1,131.9-131.9,131.9H551.9
	c-72.8,0-131.9-59.1-131.9-131.9V131.9C420,59.1,479.1,0,551.9,0H1368.1L1368.1,0z M960,170.9c-100.3,0-112.8,0.4-152.2,2.2
	c-39.3,1.8-66.1,8-89.6,17.2c-24.3,9.4-44.9,22.1-65.4,42.6s-33.1,41.1-42.6,65.4c-9.1,23.5-15.4,50.3-17.2,89.6
	c-1.8,39.4-2.2,51.9-2.2,152.2s0.4,112.8,2.2,152.2c1.8,39.3,8,66.1,17.2,89.6c9.4,24.3,22.1,44.9,42.6,65.4s41.1,33.1,65.4,42.6
	c23.5,9.1,50.3,15.4,89.6,17.2c39.4,1.8,51.9,2.2,152.2,2.2s112.8-0.4,152.2-2.2c39.3-1.8,66.1-8,89.6-17.2
	c24.3-9.4,44.9-22.1,65.4-42.6s33.1-41.1,42.6-65.4c9.1-23.5,15.4-50.3,17.2-89.6c1.8-39.4,2.2-51.9,2.2-152.2s-0.4-112.8-2.2-152.2
	c-1.8-39.3-8-66.1-17.2-89.6c-9.4-24.3-22.1-44.9-42.6-65.4s-41.1-33.1-65.4-42.6c-23.5-9.1-50.3-15.4-89.6-17.2
	C1072.8,171.3,1060.3,170.9,960,170.9L960,170.9z M960,237.4c98.6,0,110.2,0.4,149.2,2.2c36,1.6,55.5,7.7,68.5,12.7
	c17.2,6.7,29.5,14.7,42.4,27.6s20.9,25.2,27.6,42.4c5.1,13,11.1,32.6,12.7,68.5c1.8,38.9,2.2,50.6,2.2,149.2s-0.4,110.2-2.2,149.2
	c-1.6,36-7.7,55.5-12.7,68.5c-6.7,17.2-14.7,29.5-27.6,42.4s-25.2,20.9-42.4,27.6c-13,5.1-32.6,11.1-68.5,12.7
	c-38.9,1.8-50.6,2.2-149.2,2.2s-110.2-0.4-149.2-2.2c-36-1.6-55.5-7.7-68.5-12.7c-17.2-6.7-29.5-14.7-42.4-27.6
	c-12.9-12.9-20.9-25.2-27.6-42.4c-5.1-13-11.1-32.6-12.7-68.5c-1.8-38.9-2.2-50.6-2.2-149.2s0.4-110.2,2.2-149.2
	c1.6-36,7.7-55.5,12.7-68.5c6.7-17.2,14.7-29.5,27.6-42.4c12.9-12.9,25.2-20.9,42.4-27.6c13-5.1,32.6-11.1,68.5-12.7
	C849.8,237.7,861.4,237.4,960,237.4L960,237.4z M960,350.4c-104.7,0-189.6,84.9-189.6,189.6S855.3,729.6,960,729.6
	s189.6-84.9,189.6-189.6S1064.7,350.4,960,350.4L960,350.4z M960,663c-68,0-123-55.1-123-123s55-123,123-123s123,55.1,123,123
	S1028,663,960,663z M1201.3,343c0,24.5-19.8,44.3-44.3,44.3s-44.3-19.8-44.3-44.3s19.8-44.3,44.3-44.3S1201.3,318.5,1201.3,343
	L1201.3,343z"/>
<g class="st1">
	<path class="st2" d="M753.2,342.2c-3.7,8.1,0,17.8,8.1,21.4l138.9,63.2l-24,11.6c-5.6,2.7-9.1,8.3-9.1,14.6v19.3l-93-37.5
		c-8.2-3.2-17.6,0.7-21,9c-3.2,8.2,0.8,17.6,9,21l104.9,42.3v66.1l-93-37.5c-8.2-3.2-17.6,0.7-21,9c-3.2,8.2,0.8,17.6,9,21
		l104.9,42.3v80.6l-167-69.9V217.7l317.6,152.7l-79.6,38.3l-163.5-74.5C766.5,330.5,756.8,334.2,753.2,342.2z"/>
	<path class="st2" d="M899.4,463.1v32.7c0,0,0,0,0,0.1v100.9c0,0,0,0,0,0.1v267.9l318.1-153V310.3L899.4,463.1z M1156.5,662.4
		l-182.3,88.1c-2.3,1.1-4.7,1.6-7,1.6c-6.1,0-11.7-3.4-14.6-9.1c-3.8-7.9-0.4-17.6,7.5-21.5l182.3-88.1c8.1-3.9,17.6-0.5,21.5,7.5
		S1164.6,658.6,1156.5,662.4z M1156.5,561.4l-182.3,88.1c-2.3,1.1-4.7,1.6-7,1.6c-6.1,0-11.7-3.4-14.6-9.1
		c-3.8-8.1-0.4-17.6,7.5-21.5l182.3-88.1c8.1-3.9,17.6-0.5,21.5,7.5S1164.6,557.7,1156.5,561.4z M1156.5,460.4l-182.3,88.1
		c-2.3,1.1-4.7,1.6-7,1.6c-6.1,0-11.7-3.4-14.6-9.1c-3.8-7.9-0.4-17.6,7.5-21.5l182.3-88.1c8.1-3.9,17.6-0.5,21.5,7.5
		C1168,446.9,1164.6,456.7,1156.5,460.4z"/>
	<path class="st2" d="M1367.8,0h-818c-73,0-132.2,59.3-132.2,132.2v818c0,73,59.3,132.2,132.2,132.2h818
		c73,0,132.2-59.2,132.2-132.2v-818C1500.1,59.3,1440.9,0,1367.8,0z M1250,722.3c-0.1,6.2-3.6,11.8-9.3,14.5L890.2,905.1
		c-2.2,1.1-4.6,1.6-7,1.6c-3,0-6-0.8-8.6-2.4c-4.7-3-7.5-8.1-7.5-13.7V723.9l-189.4-79.2c-6.1-2.5-10-8.3-10-14.9V192
		c0-5.5,2.8-10.8,7.5-13.7c4.7-3,10.7-3.2,15.6-0.9l364.4,174.9l171.5-82.3c5-2.4,10.9-2,15.6,0.9c4.7,3,7.5,8.1,7.5,13.7V722.3z"/>
</g>
<path class="st3" d="M1365.2,1.2c72.7,0,131.8,59,131.8,131.8v814.9c0,72.7-59,131.8-131.8,131.8H550.3
	c-72.7-0.1-131.8-59.1-131.8-131.8V133c0-72.7,59-131.8,131.8-131.8H1365.2L1365.2,1.2z M957.8,161.3
	c-209.3,0-379.1,169.9-379.1,379.1s169.9,379.1,379.1,379.1c208.9,0,379.1-169.9,379.1-379.1S1166.7,161.3,957.8,161.3z
	 M957.8,864.5c-74.8,0-143.9-25.5-198.6-68.3c5.8-11.9,71.6-138.6,254.1-202.3c0.8-0.4,1.2-0.4,2-0.8
	c45.7,118,64.2,217.1,69.1,245.5C1045.3,855.5,1002.6,864.5,957.8,864.5z M1138.3,809c-3.3-19.7-20.5-114.3-62.9-230.7
	c101.6-16,190.4,10.3,201.5,14C1262.9,682.3,1211.1,760,1138.3,809z M633.7,540.9V531c14,0.4,171,2.4,332.7-46.1
	c9.4,18.1,18.1,36.6,26.3,55.1c-4.1,1.2-8.6,2.5-12.7,3.7C813,597.6,724.2,744.8,716.8,757.2C665.4,700,633.7,623.9,633.7,540.9z
	 M1208.2,336.1c45.2,55.1,72.4,125.4,73.2,201.5c-10.7-2-117.6-23.8-225.3-10.3c-2.5-5.3-4.5-11.1-7-16.9
	c-6.6-15.6-14-31.7-21.4-46.9C1146.9,415,1201.2,345.1,1208.2,336.1L1208.2,336.1z M820,247.6c8.6,11.5,66.2,91.7,120.1,187.1
	c-151.3,40.3-285,39.5-299.4,39.5C661.7,373.9,729.5,290.4,820,247.6z M957.8,217.2c82.2,0,157.5,30.8,214.7,81.4
	c-5.8,8.2-54.7,73.6-169.9,116.8C949.5,318,890.7,238.2,881.7,225.9C905.9,220.1,931.5,217.2,957.8,217.2z"/>
</svg>
