<svg xmlns="http://www.w3.org/2000/svg" viewBox="0 0 302.69 366.98"><defs><style>.cls-1{fill:#fff;}</style></defs><title>lapin</title><g id="Calque_2" data-name="Calque 2"><g id="Calque_1-2" data-name="Calque 1"><path class="cls-1" d="M185.69,66s-67.71,8.17-70-28c0,0,10.51-8.17,42.62-4.08,0,0-28-21-22.77-30.94s64.8,6.63,63.63,31.92c0,0,48.45-36.59,86.4,3.69,0,0,22.18,11.67-12.84,41.45,0,0-3.51,14.59,2.91,23.35s20.44,30.94-4.67,71.21c0,0-4.08,9.35,7,10.51s21.6-.58,24.52,6.42-21,18.68-21,18.68-9.34,4.67-37.36-6.42c0,0-92.23,4.09-120.25,64.22,0,0,3.5,25.1-21,57.79S75.36,364.85,67.19,366.6s-13.43-2.33-11.67-18.09c0,0,11.67-18.68,6.42-26.86,0,0-63,12.26-53.71-26.85,0,0,2.92-7,16.35-1.75,0,0-53.71-46.7-2.34-113.25,0,0,38.53-39.11,102.74-63.05S185.69,66,185.69,66Z"/></g></g></svg>