<svg xmlns="http://www.w3.org/2000/svg" viewBox="0 0 561 561"><defs><style>.cls-1,.cls-10,.cls-11,.cls-12,.cls-13,.cls-14,.cls-15,.cls-16,.cls-17,.cls-18,.cls-19,.cls-2,.cls-20,.cls-3,.cls-4,.cls-5,.cls-6,.cls-7,.cls-8,.cls-9{fill:none;stroke:#fff;stroke-miterlimit:10;}.cls-2{stroke-width:0.95px;}.cls-3{stroke-width:0.89px;}.cls-4{stroke-width:0.82px;}.cls-5{stroke-width:0.77px;}.cls-6{stroke-width:0.7px;}.cls-7{stroke-width:0.66px;}.cls-8{stroke-width:0.59px;}.cls-9{stroke-width:0.53px;}.cls-10{stroke-width:0.48px;}.cls-11{stroke-width:0.43px;}.cls-12{stroke-width:0.38px;}.cls-13{stroke-width:0.34px;}.cls-14{stroke-width:0.29px;}.cls-15{stroke-width:0.25px;}.cls-16{stroke-width:0.21px;}.cls-17{stroke-width:0.17px;}.cls-18{stroke-width:0.14px;}.cls-19{stroke-width:0.1px;}.cls-20{stroke-width:0.07px;}</style></defs><title>spirale_1</title><g id="Calque_2" data-name="Calque 2"><g id="Calque_1-2" data-name="Calque 1"><circle class="cls-1" cx="280.5" cy="280.5" r="280"/><circle class="cls-2" cx="280.5" cy="280.5" r="266.17"/><circle class="cls-3" cx="280.5" cy="280.5" r="250.5"/><circle class="cls-4" cx="280.5" cy="280.5" r="230.5"/><circle class="cls-5" cx="280.5" cy="280.5" r="215"/><circle class="cls-6" cx="280.5" cy="280.5" r="197.39"/><circle class="cls-7" cx="280.5" cy="280.5" r="184.08"/><circle class="cls-8" cx="280.5" cy="280.5" r="166.32"/><circle class="cls-9" cx="280.5" cy="280.5" r="148.9"/><circle class="cls-10" cx="280.5" cy="280.5" r="133.4"/><circle class="cls-11" cx="280.5" cy="280.5" r="120.01"/><circle class="cls-12" cx="280.5" cy="280.5" r="106.44"/><circle class="cls-13" cx="280.5" cy="280.5" r="94.1"/><circle class="cls-14" cx="280.5" cy="280.5" r="82.1"/><circle class="cls-15" cx="280.5" cy="280.5" r="69.87"/><circle class="cls-16" cx="280.5" cy="280.5" r="59.37"/><circle class="cls-17" cx="280.5" cy="280.5" r="47.6"/><circle class="cls-18" cx="280.5" cy="280.5" r="38.38"/><circle class="cls-19" cx="280.5" cy="280.5" r="27.82"/><circle class="cls-20" cx="280.5" cy="280.5" r="18.64"/></g></g></svg>